<svg width="816" height="220" viewBox="0 0 816 220" fill="none" xmlns="http://www.w3.org/2000/svg">
<path d="M372.429 66.0054C386.64 66.0054 397.525 68.556 405.086 73.6572C412.647 78.6673 416.427 86.5014 416.427 97.1593C416.427 103.809 414.879 109.229 411.781 113.419C408.775 117.519 404.403 120.752 398.664 123.121C400.577 125.489 402.581 128.222 404.676 131.319C406.771 134.325 408.821 137.514 410.825 140.884C412.92 144.163 414.924 147.625 416.837 151.269C418.75 154.821 420.526 158.328 422.166 161.79H398.254C396.523 158.693 394.747 155.55 392.925 152.362C391.194 149.174 389.372 146.076 387.46 143.07C385.638 140.064 383.816 137.24 381.994 134.599C380.172 131.866 378.35 129.406 376.528 127.22H366.007V161.79H344.691V68.4649C349.337 67.554 354.119 66.9163 359.038 66.5519C364.049 66.1876 368.512 66.0054 372.429 66.0054ZM373.659 84.1785C372.11 84.1785 370.698 84.224 369.423 84.3151C368.239 84.4062 367.1 84.4973 366.007 84.5884V110.277H372.019C380.035 110.277 385.774 109.275 389.236 107.271C392.697 105.267 394.428 101.851 394.428 97.0226C394.428 92.3769 392.652 89.0975 389.099 87.1846C385.638 85.1805 380.491 84.1785 373.659 84.1785ZM498.22 125.717C498.22 131.365 497.4 136.557 495.761 141.294C494.121 145.94 491.752 149.948 488.655 153.318C485.558 156.598 481.823 159.148 477.451 160.97C473.169 162.792 468.342 163.703 462.967 163.703C457.684 163.703 452.856 162.792 448.483 160.97C444.202 159.148 440.512 156.598 437.415 153.318C434.318 149.948 431.904 145.94 430.173 141.294C428.443 136.557 427.577 131.365 427.577 125.717C427.577 120.069 428.443 114.922 430.173 110.277C431.995 105.631 434.455 101.668 437.552 98.389C440.74 95.1097 444.475 92.5591 448.756 90.7372C453.129 88.9153 457.866 88.0044 462.967 88.0044C468.159 88.0044 472.896 88.9153 477.178 90.7372C481.55 92.5591 485.285 95.1097 488.382 98.389C491.479 101.668 493.893 105.631 495.624 110.277C497.355 114.922 498.22 120.069 498.22 125.717ZM477.451 125.717C477.451 119.432 476.176 114.513 473.625 110.96C471.165 107.316 467.613 105.494 462.967 105.494C458.321 105.494 454.723 107.316 452.172 110.96C449.622 114.513 448.347 119.432 448.347 125.717C448.347 132.002 449.622 137.013 452.172 140.747C454.723 144.391 458.321 146.213 462.967 146.213C467.613 146.213 471.165 144.391 473.625 140.747C476.176 137.013 477.451 132.002 477.451 125.717ZM553.48 123.667C553.48 117.109 552.615 112.463 550.884 109.73C549.244 106.997 546.375 105.631 542.276 105.631C541.001 105.631 539.68 105.722 538.313 105.904C536.947 105.995 535.626 106.132 534.351 106.314V161.79H513.991V92.3769C515.722 91.9214 517.726 91.466 520.004 91.0105C522.372 90.4639 524.831 90.0085 527.382 89.6441C530.024 89.1886 532.711 88.8698 535.444 88.6876C538.177 88.4143 540.864 88.2777 543.506 88.2777C548.698 88.2777 552.888 88.9609 556.076 90.3273C559.356 91.6026 562.043 93.1512 564.138 94.973C567.053 92.8779 570.378 91.2382 574.113 90.054C577.939 88.8698 581.446 88.2777 584.634 88.2777C590.373 88.2777 595.064 89.0975 598.708 90.7372C602.443 92.2858 605.404 94.5176 607.59 97.4326C609.776 100.348 611.279 103.809 612.099 107.817C612.919 111.825 613.329 116.289 613.329 121.208V161.79H592.969V123.667C592.969 117.109 592.104 112.463 590.373 109.73C588.733 106.997 585.864 105.631 581.765 105.631C580.672 105.631 579.123 105.904 577.119 106.451C575.206 106.997 573.612 107.681 572.337 108.5C572.974 110.596 573.384 112.827 573.566 115.196C573.749 117.473 573.84 119.933 573.84 122.574V161.79H553.48V123.667ZM671.306 123.667C671.306 117.109 670.44 112.463 668.709 109.73C667.07 106.997 664.2 105.631 660.101 105.631C658.826 105.631 657.505 105.722 656.139 105.904C654.772 105.995 653.451 106.132 652.176 106.314V161.79H631.817V92.3769C633.547 91.9214 635.552 91.466 637.829 91.0105C640.197 90.4639 642.657 90.0085 645.207 89.6441C647.849 89.1886 650.536 88.8698 653.269 88.6876C656.002 88.4143 658.689 88.2777 661.331 88.2777C666.523 88.2777 670.714 88.9609 673.902 90.3273C677.181 91.6026 679.868 93.1512 681.964 94.973C684.879 92.8779 688.203 91.2382 691.938 90.054C695.764 88.8698 699.271 88.2777 702.46 88.2777C708.198 88.2777 712.89 89.0975 716.533 90.7372C720.268 92.2858 723.229 94.5176 725.415 97.4326C727.601 100.348 729.104 103.809 729.924 107.817C730.744 111.825 731.154 116.289 731.154 121.208V161.79H710.795V123.667C710.795 117.109 709.929 112.463 708.198 109.73C706.559 106.997 703.689 105.631 699.59 105.631C698.497 105.631 696.948 105.904 694.944 106.451C693.031 106.997 691.437 107.681 690.162 108.5C690.8 110.596 691.21 112.827 691.392 115.196C691.574 117.473 691.665 119.933 691.665 122.574V161.79H671.306V123.667ZM777.107 147.579C779.111 147.579 781.024 147.534 782.846 147.443C784.667 147.352 786.125 147.215 787.218 147.033V131.593C786.398 131.41 785.168 131.228 783.529 131.046C781.889 130.864 780.386 130.773 779.02 130.773C777.107 130.773 775.285 130.909 773.554 131.183C771.914 131.365 770.457 131.775 769.182 132.412C767.906 133.05 766.904 133.915 766.175 135.009C765.447 136.102 765.082 137.468 765.082 139.108C765.082 142.296 766.13 144.528 768.225 145.803C770.411 146.987 773.372 147.579 777.107 147.579ZM775.467 88.0044C781.479 88.0044 786.489 88.6876 790.497 90.054C794.505 91.4204 797.694 93.3789 800.062 95.9295C802.522 98.4801 804.252 101.577 805.254 105.221C806.256 108.865 806.758 112.918 806.758 117.382V159.74C803.843 160.378 799.789 161.107 794.597 161.927C789.404 162.838 783.119 163.293 775.74 163.293C771.094 163.293 766.859 162.883 763.033 162.063C759.298 161.243 756.064 159.923 753.331 158.101C750.598 156.188 748.503 153.728 747.046 150.722C745.588 147.716 744.86 144.027 744.86 139.654C744.86 135.464 745.679 131.911 747.319 128.996C749.05 126.081 751.327 123.759 754.151 122.028C756.975 120.297 760.209 119.067 763.853 118.338C767.496 117.519 771.277 117.109 775.194 117.109C777.835 117.109 780.158 117.245 782.162 117.519C784.257 117.701 785.943 117.974 787.218 118.338V116.426C787.218 112.964 786.17 110.186 784.075 108.09C781.98 105.995 778.336 104.948 773.144 104.948C769.683 104.948 766.267 105.221 762.896 105.768C759.526 106.223 756.611 106.906 754.151 107.817L751.555 91.4204C752.739 91.056 754.197 90.6917 755.927 90.3273C757.749 89.8718 759.708 89.5074 761.803 89.2342C763.898 88.8698 766.084 88.5965 768.362 88.4143C770.73 88.141 773.099 88.0044 775.467 88.0044Z" fill="#231D4F"/>
<path d="M62.63 20.72H57C52.2348 20.7187 47.516 21.6561 43.1132 23.4788C38.7103 25.3014 34.7097 27.9736 31.3397 31.3426C27.9697 34.7117 25.2965 38.7116 23.4726 43.1139C21.6487 47.5163 20.71 52.2348 20.71 57V63C20.6781 63.7533 20.799 64.5053 21.0653 65.2107C21.3316 65.9161 21.7378 66.5603 22.2596 67.1046C22.7813 67.6489 23.4078 68.0821 24.1013 68.378C24.7948 68.6738 25.541 68.8264 26.295 68.8264C27.049 68.8264 27.7952 68.6738 28.4887 68.378C29.1822 68.0821 29.8087 67.6489 30.3304 67.1046C30.8522 66.5603 31.2584 65.9161 31.5247 65.2107C31.791 64.5053 31.9119 63.7533 31.88 63V57C31.8787 53.7013 32.5276 50.4347 33.7897 47.387C35.0517 44.3392 36.9022 41.5702 39.2352 39.2381C41.5682 36.906 44.338 35.0567 47.3862 33.7958C50.4344 32.535 53.7013 31.8874 57 31.89H62.68C63.4333 31.9219 64.1853 31.801 64.8907 31.5347C65.5961 31.2684 66.2403 30.8622 66.7846 30.3404C67.3289 29.8187 67.7621 29.1922 68.058 28.4987C68.3538 27.8052 68.5064 27.059 68.5064 26.305C68.5064 25.551 68.3538 24.8048 68.058 24.1113C67.7621 23.4178 67.3289 22.7913 66.7846 22.2696C66.2403 21.7478 65.5961 21.3416 64.8907 21.0753C64.1853 20.809 63.4333 20.6881 62.68 20.72H62.63ZM5.63 68.53C6.36409 68.53 7.09099 68.3854 7.7692 68.1045C8.44741 67.8236 9.06365 67.4118 9.58273 66.8927C10.1018 66.3737 10.5136 65.7574 10.7945 65.0792C11.0754 64.401 11.22 63.6741 11.22 62.94V57.51C11.2332 45.2352 16.1118 33.4663 24.7867 24.782C33.4615 16.0977 45.2253 11.2065 57.5 11.18H62.63C64.1126 11.18 65.5344 10.5911 66.5827 9.54273C67.6311 8.4944 68.22 7.07256 68.22 5.59C68.22 4.10744 67.6311 2.6856 66.5827 1.63727C65.5344 0.588945 64.1126 0 62.63 0L57.5 0C42.254 0.0185295 27.6379 6.08387 16.8583 16.8654C6.07868 27.6468 0.0158783 42.264 0 57.51L0 62.94C0 63.6741 0.14459 64.401 0.425513 65.0792C0.706437 65.7574 1.11819 66.3737 1.63727 66.8927C2.15635 67.4118 2.77259 67.8236 3.4508 68.1045C4.12901 68.3854 4.85591 68.53 5.59 68.53H5.63ZM62.63 40.47H59.63C54.5474 40.4753 49.6745 42.4967 46.0806 46.0906C42.4867 49.6845 40.4653 54.5574 40.46 59.64V62.94C40.46 64.4226 41.0489 65.8444 42.0973 66.8927C43.1456 67.9411 44.5674 68.53 46.05 68.53C47.5326 68.53 48.9544 67.9411 50.0027 66.8927C51.0511 65.8444 51.64 64.4226 51.64 62.94V59.64C51.64 57.5183 52.4829 55.4834 53.9831 53.9831C55.4834 52.4829 57.5183 51.64 59.64 51.64H62.64C64.1226 51.64 65.5444 51.0511 66.5927 50.0027C67.6411 48.9544 68.23 47.5326 68.23 46.05C68.23 44.5674 67.6411 43.1456 66.5927 42.0973C65.5444 41.0489 64.1226 40.46 62.64 40.46L62.63 40.47ZM279.52 11.12H95.81C93.1877 11.1226 90.6731 12.1634 88.8161 14.0149C86.959 15.8663 85.9106 18.3777 85.9 21V60.52C85.8972 62.3289 85.6824 64.1312 85.26 65.89H76.8C74.6783 65.89 72.6434 66.7329 71.1431 68.2331C69.6429 69.7334 68.8 71.7683 68.8 73.89V82.63C66.908 83.1357 64.9584 83.3945 63 83.4H14.36C13.0573 83.4 11.7673 83.6566 10.5638 84.1551C9.36023 84.6536 8.26666 85.3843 7.3455 86.3055C5.48514 88.1659 4.44 90.6891 4.44 93.32V196.81C4.44 202.879 6.85024 208.7 11.1408 212.992C15.4313 217.285 21.2509 219.697 27.32 219.7H279.52C285.589 219.697 291.409 217.285 295.699 212.992C299.99 208.7 302.4 202.879 302.4 196.81V34C302.4 30.9954 301.808 28.0201 300.658 25.2442C299.509 22.4683 297.823 19.946 295.699 17.8214C293.574 15.6968 291.052 14.0115 288.276 12.8616C285.5 11.7118 282.525 11.12 279.52 11.12ZM102.52 200.18C102.507 201.232 102.08 202.237 101.331 202.976C100.582 203.716 99.5723 204.13 98.52 204.13H60.09C59.0377 204.13 58.0278 203.716 57.2791 202.976C56.5304 202.237 56.1032 201.232 56.09 200.18V157.84C56.0259 154.755 56.5783 151.688 57.7146 148.819C58.851 145.95 60.5485 143.336 62.7078 141.132C64.8671 138.927 67.4447 137.176 70.2895 135.98C73.1343 134.784 76.1891 134.168 79.275 134.168C82.3609 134.168 85.4157 134.784 88.2605 135.98C91.1053 137.176 93.6829 138.927 95.8422 141.132C98.0015 143.336 99.699 145.95 100.835 148.819C101.972 151.688 102.524 154.755 102.46 157.84L102.52 200.18ZM161.42 200.18C161.407 201.224 160.987 202.221 160.249 202.959C159.511 203.697 158.514 204.117 157.47 204.13H119C117.948 204.13 116.938 203.716 116.189 202.976C115.44 202.237 115.013 201.232 115 200.18V157.84C115 151.692 117.442 145.796 121.789 141.449C126.136 137.102 132.032 134.66 138.18 134.66C144.328 134.66 150.224 137.102 154.571 141.449C158.918 145.796 161.36 151.692 161.36 157.84L161.42 200.18ZM161.42 111.46C161.42 112.512 161.006 113.522 160.266 114.271C159.527 115.02 158.522 115.447 157.47 115.46H119C117.939 115.46 116.922 115.039 116.172 114.288C115.421 113.538 115 112.521 115 111.46V69.12C115 62.9723 117.442 57.0764 121.789 52.7293C126.136 48.3822 132.032 45.94 138.18 45.94C144.328 45.94 150.224 48.3822 154.571 52.7293C158.918 57.0764 161.36 62.9723 161.36 69.12L161.42 111.46ZM220.33 200.18C220.317 201.224 219.897 202.221 219.159 202.959C218.421 203.697 217.424 204.117 216.38 204.13H177.91C176.866 204.117 175.869 203.697 175.131 202.959C174.393 202.221 173.973 201.224 173.96 200.18V157.84C173.96 151.692 176.402 145.796 180.749 141.449C185.096 137.102 190.992 134.66 197.14 134.66C203.288 134.66 209.184 137.102 213.531 141.449C217.878 145.796 220.32 151.692 220.32 157.84L220.33 200.18ZM220.33 111.46C220.33 112.512 219.916 113.522 219.176 114.271C218.437 115.02 217.432 115.447 216.38 115.46H177.91C176.858 115.447 175.853 115.02 175.114 114.271C174.374 113.522 173.96 112.512 173.96 111.46V69.12C173.96 62.9723 176.402 57.0764 180.749 52.7293C185.096 48.3822 190.992 45.94 197.14 45.94C203.288 45.94 209.184 48.3822 213.531 52.7293C217.878 57.0764 220.32 62.9723 220.32 69.12L220.33 111.46ZM279.24 200.18C279.227 201.232 278.8 202.237 278.051 202.976C277.302 203.716 276.292 204.13 275.24 204.13H236.81C235.768 204.114 234.774 203.693 234.038 202.955C233.302 202.218 232.883 201.222 232.87 200.18V157.84C232.87 151.692 235.312 145.796 239.659 141.449C244.006 137.102 249.902 134.66 256.05 134.66C262.198 134.66 268.094 137.102 272.441 141.449C276.788 145.796 279.23 151.692 279.23 157.84L279.24 200.18ZM279.24 111.46C279.24 112.521 278.819 113.538 278.068 114.288C277.318 115.039 276.301 115.46 275.24 115.46H236.81C235.76 115.444 234.757 115.016 234.02 114.267C233.283 113.519 232.87 112.511 232.87 111.46V69.12C232.87 62.9723 235.312 57.0764 239.659 52.7293C244.006 48.3822 249.902 45.94 256.05 45.94C262.198 45.94 268.094 48.3822 272.441 52.7293C276.788 57.0764 279.23 62.9723 279.23 69.12L279.24 111.46Z" fill="#231D4F"/>
</svg>
